<svg width="18" height="10" viewBox="0 0 18 10" fill="none" xmlns="http://www.w3.org/2000/svg">
<path d="M14.0409 0.771656L17.7276 4.46041C18.0846 4.81607 18.0914 5.38703 17.744 5.73587L14.1418 9.33742C13.9708 9.50471 13.7405 9.59726 13.5013 9.5947C13.2622 9.59214 13.0339 9.4947 12.8666 9.32379C12.7817 9.24099 12.7139 9.14227 12.6672 9.03325C12.6205 8.92424 12.5957 8.80708 12.5943 8.68849C12.5929 8.56989 12.6149 8.45219 12.6591 8.34211C12.7032 8.23203 12.7686 8.13173 12.8516 8.04697L14.9592 5.93891H0.912812C0.794369 5.94035 0.676802 5.91844 0.566825 5.87443C0.456849 5.83043 0.356616 5.76518 0.271852 5.68242C0.187088 5.59967 0.119453 5.50102 0.0728079 5.39212C0.0261632 5.28322 0.00142269 5.16619 0 5.04772C0 4.55444 0.408722 4.15517 0.912812 4.15517H14.9034L12.7807 2.03213C12.6097 1.86496 12.512 1.63669 12.5092 1.3975C12.5064 1.15832 12.5987 0.927809 12.7657 0.756667C12.9368 0.589552 13.1673 0.497251 13.4064 0.500062C13.6456 0.502873 13.8738 0.600566 14.0409 0.771656Z" fill="#001D4A"/>
</svg>
